<svg width="654" height="316" viewBox="0 0 654 316" fill="none" xmlns="http://www.w3.org/2000/svg">
<g clip-path="url(#clip0_57_19001)">
<path opacity="0.2" fill-rule="evenodd" clip-rule="evenodd" d="M320.668 314.912C401.753 314.912 467.485 249.363 467.485 168.505C467.485 87.646 401.753 22.0972 320.668 22.0972C239.584 22.0972 173.852 87.646 173.852 168.505C173.852 249.363 239.584 314.912 320.668 314.912Z" stroke="#4360DF" stroke-width="1.24439"/>
<path opacity="0.4" fill-rule="evenodd" clip-rule="evenodd" d="M320.15 272.49C378.026 272.49 424.944 225.703 424.944 167.987C424.944 110.272 378.026 63.4844 320.15 63.4844C262.273 63.4844 215.355 110.272 215.355 167.987C215.355 225.703 262.273 272.49 320.15 272.49Z" stroke="#4360DF" stroke-width="1.24439"/>
<path opacity="0.6" fill-rule="evenodd" clip-rule="evenodd" d="M320.15 242.485C361.408 242.485 394.855 209.131 394.855 167.988C394.855 126.844 361.408 93.4907 320.15 93.4907C278.891 93.4907 245.444 126.844 245.444 167.988C245.444 209.131 278.891 242.485 320.15 242.485Z" stroke="#4360DF" stroke-width="1.24439"/>
<path fill-rule="evenodd" clip-rule="evenodd" d="M320.15 209.375C343.071 209.375 361.653 190.845 361.653 167.988C361.653 145.13 343.071 126.6 320.15 126.6C297.228 126.6 278.647 145.13 278.647 167.988C278.647 190.845 297.228 209.375 320.15 209.375Z" fill="#4360DF"/>
<path opacity="0.2" fill-rule="evenodd" clip-rule="evenodd" d="M542.137 288.857C590.925 288.857 630.476 249.416 630.476 200.764C630.476 152.112 590.925 112.672 542.137 112.672C493.349 112.672 453.799 152.112 453.799 200.764C453.799 249.416 493.349 288.857 542.137 288.857Z" stroke="#090909" stroke-width="1.24439"/>
<path opacity="0.4" fill-rule="evenodd" clip-rule="evenodd" d="M541.825 263.332C576.649 263.332 604.88 235.18 604.88 200.453C604.88 165.726 576.649 137.574 541.825 137.574C507.001 137.574 478.771 165.726 478.771 200.453C478.771 235.18 507.001 263.332 541.825 263.332Z" stroke="#090909" stroke-width="1.24439"/>
<path opacity="0.6" fill-rule="evenodd" clip-rule="evenodd" d="M541.825 245.277C566.65 245.277 586.775 225.209 586.775 200.453C586.775 175.697 566.65 155.628 541.825 155.628C517 155.628 496.875 175.697 496.875 200.453C496.875 225.209 517 245.277 541.825 245.277Z" stroke="#090909" stroke-width="1.24439"/>
<path fill-rule="evenodd" clip-rule="evenodd" d="M541.825 225.356C555.617 225.356 566.797 214.206 566.797 200.453C566.797 186.7 555.617 175.551 541.825 175.551C528.033 175.551 516.853 186.7 516.853 200.453C516.853 214.206 528.033 225.356 541.825 225.356Z" fill="#090909"/>
<path opacity="0.2" fill-rule="evenodd" clip-rule="evenodd" d="M634.831 149.894C659.225 149.894 679 130.174 679 105.848C679 81.5215 659.225 61.8013 634.831 61.8013C610.437 61.8013 590.661 81.5215 590.661 105.848C590.661 130.174 610.437 149.894 634.831 149.894Z" stroke="#BBBFC5" stroke-width="1.24439"/>
<path opacity="0.4" fill-rule="evenodd" clip-rule="evenodd" d="M634.66 137.117C652.072 137.117 666.187 123.041 666.187 105.677C666.187 88.3137 652.072 74.2378 634.66 74.2378C617.248 74.2378 603.133 88.3137 603.133 105.677C603.133 123.041 617.248 137.117 634.66 137.117Z" stroke="#BBBFC5" stroke-width="1.24439"/>
<path opacity="0.6" fill-rule="evenodd" clip-rule="evenodd" d="M634.675 128.104C647.087 128.104 657.149 118.07 657.149 105.692C657.149 93.3141 647.087 83.2798 634.675 83.2798C622.262 83.2798 612.2 93.3141 612.2 105.692C612.2 118.07 622.262 128.104 634.675 128.104Z" stroke="#BBBFC5" stroke-width="1.24439"/>
<path fill-rule="evenodd" clip-rule="evenodd" d="M634.675 118.143C641.57 118.143 647.161 112.569 647.161 105.692C647.161 98.8153 641.57 93.2407 634.675 93.2407C627.779 93.2407 622.189 98.8153 622.189 105.692C622.189 112.569 627.779 118.143 634.675 118.143Z" fill="#9DA4AE"/>
<path opacity="0.2" fill-rule="evenodd" clip-rule="evenodd" d="M137.77 192.079C196.178 192.079 243.528 144.862 243.528 86.6162C243.528 28.3706 196.178 -18.8467 137.77 -18.8467C79.3618 -18.8467 32.0125 28.3706 32.0125 86.6162C32.0125 144.862 79.3618 192.079 137.77 192.079Z" stroke="#BBBFC5" stroke-width="1.24439"/>
<path opacity="0.4" fill-rule="evenodd" clip-rule="evenodd" d="M137.396 161.521C179.087 161.521 212.884 127.818 212.884 86.2433C212.884 44.6687 179.087 10.9658 137.396 10.9658C95.7056 10.9658 61.9086 44.6687 61.9086 86.2433C61.9086 127.818 95.7056 161.521 137.396 161.521Z" stroke="#BBBFC5" stroke-width="1.24439"/>
<path opacity="0.6" fill-rule="evenodd" clip-rule="evenodd" d="M137.396 139.907C167.116 139.907 191.209 115.881 191.209 86.2433C191.209 56.6059 167.116 32.5801 137.396 32.5801C107.676 32.5801 83.5833 56.6059 83.5833 86.2433C83.5833 115.881 107.676 139.907 137.396 139.907Z" stroke="#BBBFC5" stroke-width="1.24439"/>
<path fill-rule="evenodd" clip-rule="evenodd" d="M137.396 116.056C153.908 116.056 167.292 102.708 167.292 86.2431C167.292 69.7779 153.908 56.4302 137.396 56.4302C120.885 56.4302 107.5 69.7779 107.5 86.2431C107.5 102.708 120.885 116.056 137.396 116.056Z" fill="#BBBFC5"/>
<path opacity="0.2" fill-rule="evenodd" clip-rule="evenodd" d="M33.8788 259.079C63.0829 259.079 86.7576 235.47 86.7576 206.347C86.7576 177.225 63.0829 153.616 33.8788 153.616C4.67464 153.616 -19 177.225 -19 206.347C-19 235.47 4.67464 259.079 33.8788 259.079Z" stroke="#090909" stroke-width="1.24439"/>
<path opacity="0.4" fill-rule="evenodd" clip-rule="evenodd" d="M33.6919 243.8C54.5373 243.8 71.4358 226.948 71.4358 206.161C71.4358 185.374 54.5373 168.522 33.6919 168.522C12.8466 168.522 -4.05194 185.374 -4.05194 206.161C-4.05194 226.948 12.8466 243.8 33.6919 243.8Z" stroke="#090909" stroke-width="1.24439"/>
<path opacity="0.6" fill-rule="evenodd" clip-rule="evenodd" d="M33.6919 232.993C48.552 232.993 60.5985 220.98 60.5985 206.161C60.5985 191.342 48.552 179.33 33.6919 179.33C18.8319 179.33 6.7854 191.342 6.7854 206.161C6.7854 220.98 18.8319 232.993 33.6919 232.993Z" stroke="#090909" stroke-width="1.24439"/>
<path fill-rule="evenodd" clip-rule="evenodd" d="M33.6919 221.067C41.9475 221.067 48.64 214.394 48.64 206.161C48.64 197.928 41.9475 191.255 33.6919 191.255C25.4363 191.255 18.7439 197.928 18.7439 206.161C18.7439 214.394 25.4363 221.067 33.6919 221.067Z" fill="#090909"/>
<path fill-rule="evenodd" clip-rule="evenodd" d="M186.916 110.19C188.634 110.19 190.027 108.801 190.027 107.088C190.027 105.375 188.634 103.986 186.916 103.986C185.198 103.986 183.806 105.375 183.806 107.088C183.806 108.801 185.198 110.19 186.916 110.19Z" fill="#67778E"/>
<path fill-rule="evenodd" clip-rule="evenodd" d="M211.8 74.2086C213.518 74.2086 214.911 72.8198 214.911 71.1067C214.911 69.3936 213.518 68.0049 211.8 68.0049C210.082 68.0049 208.69 69.3936 208.69 71.1067C208.69 72.8198 210.082 74.2086 211.8 74.2086Z" fill="#4360DF"/>
<path fill-rule="evenodd" clip-rule="evenodd" d="M236.684 51.8751C238.402 51.8751 239.795 50.4864 239.795 48.7733C239.795 47.0602 238.402 45.6714 236.684 45.6714C234.967 45.6714 233.574 47.0602 233.574 48.7733C233.574 50.4864 234.967 51.8751 236.684 51.8751Z" fill="#67778E"/>
<path fill-rule="evenodd" clip-rule="evenodd" d="M242.906 100.264C244.623 100.264 246.016 98.8755 246.016 97.1624C246.016 95.4493 244.623 94.0605 242.906 94.0605C241.188 94.0605 239.795 95.4493 239.795 97.1624C239.795 98.8755 241.188 100.264 242.906 100.264Z" fill="#4360DF"/>
<path fill-rule="evenodd" clip-rule="evenodd" d="M466.863 157.338C468.581 157.338 469.973 155.949 469.973 154.236C469.973 152.523 468.581 151.135 466.863 151.135C465.145 151.135 463.752 152.523 463.752 154.236C463.752 155.949 465.145 157.338 466.863 157.338Z" fill="#090909"/>
<path fill-rule="evenodd" clip-rule="evenodd" d="M456.909 225.579C458.627 225.579 460.02 224.19 460.02 222.477C460.02 220.764 458.627 219.375 456.909 219.375C455.191 219.375 453.799 220.764 453.799 222.477C453.799 224.19 455.191 225.579 456.909 225.579Z" fill="#4360DF"/>
<path fill-rule="evenodd" clip-rule="evenodd" d="M603.726 139.968C605.443 139.968 606.836 138.579 606.836 136.866C606.836 135.153 605.443 133.764 603.726 133.764C602.008 133.764 600.615 135.153 600.615 136.866C600.615 138.579 602.008 139.968 603.726 139.968Z" fill="#090909"/>
<path fill-rule="evenodd" clip-rule="evenodd" d="M216.777 159.82C218.495 159.82 219.888 158.431 219.888 156.718C219.888 155.005 218.495 153.616 216.777 153.616C215.059 153.616 213.667 155.005 213.667 156.718C213.667 158.431 215.059 159.82 216.777 159.82Z" fill="#67778E"/>
<path fill-rule="evenodd" clip-rule="evenodd" d="M174.474 153.616C176.192 153.616 177.585 152.227 177.585 150.514C177.585 148.801 176.192 147.412 174.474 147.412C172.756 147.412 171.364 148.801 171.364 150.514C171.364 152.227 172.756 153.616 174.474 153.616Z" fill="#67778E"/>
<path fill-rule="evenodd" clip-rule="evenodd" d="M174.474 188.357C176.192 188.357 177.585 186.968 177.585 185.255C177.585 183.542 176.192 182.153 174.474 182.153C172.756 182.153 171.364 183.542 171.364 185.255C171.364 186.968 172.756 188.357 174.474 188.357Z" fill="#4360DF"/>
<path fill-rule="evenodd" clip-rule="evenodd" d="M68.7166 169.746C70.4345 169.746 71.8271 168.357 71.8271 166.644C71.8271 164.931 70.4345 163.542 68.7166 163.542C66.9987 163.542 65.6061 164.931 65.6061 166.644C65.6061 168.357 66.9987 169.746 68.7166 169.746Z" fill="#090909"/>
</g>
<defs>
<clipPath id="clip0_57_19001">
<rect width="654" height="316" fill="white"/>
</clipPath>
</defs>
</svg>
